<?xml version="1.0" standalone="no"?><!DOCTYPE svg PUBLIC "-//W3C//DTD SVG 1.1//EN" "http://www.w3.org/Graphics/SVG/1.1/DTD/svg11.dtd"><svg t="1669218814164" class="icon" viewBox="0 0 1024 1024" version="1.1" xmlns="http://www.w3.org/2000/svg" p-id="2334" xmlns:xlink="http://www.w3.org/1999/xlink" width="200" height="200"><path d="M513.430588 849.965176l123.452236-78.20047H311.567059c-35.764706 0-63.096471-26.563765-63.096471-62.238118v-20.48l-2.725647 2.499765c-1.129412 0.632471-1.536 0.933647-2.740706 0.933647a6.580706 6.580706 0 0 1-5.827764-3.614118 7.258353 7.258353 0 0 1 2.891294-9.803294l6.806588-4.773647c0.993882-0.557176 1.596235-0.783059 1.596235-0.843294V565.308235l-56.018823 32.978824c-1.129412 0.647529-1.520941 0.948706-2.740706 0.948706a6.535529 6.535529 0 0 1-5.812706-3.614118 7.228235 7.228235 0 0 1 2.876235-9.788235l58.443294-34.288941c1.505882-0.873412 3.267765-1.039059 3.267765-0.752942v-131.674353l-119.009882 68.969412c-1.129412 0.632471-1.520941 0.933647-2.740706 0.933647a6.580706 6.580706 0 0 1-5.827765-3.614117 7.258353 7.258353 0 0 1 2.891294-9.803294l124.280471-71.920942c0.617412-0.361412 0.406588-0.496941 0.406588-0.647529V222.208L43.700706 340.208941c-34.379294 19.651765-45.537882 63.608471-25.886118 97.987765l263.228236 459.791059a72.146824 72.146824 0 0 0 98.288941 26.699294l133.616941-75.685647 0.481882 0.963764z m-192.286117-65.596235l-15.600942 8.899765a7.258353 7.258353 0 0 1-9.803294-2.680471 7.213176 7.213176 0 0 1 2.680471-9.803294l15.600941-8.899765a7.183059 7.183059 0 1 1 7.122824 12.483765z" p-id="2335"></path><path d="M263.529412 695.160471c0 41.878588 20.434824 61.545412 48.037647 61.545411h428.66447c27.693176 0 50.356706-20.088471 50.356706-47.179294V430.501647l1.897412-1.219765c-3.177412-2.394353-5.526588-6.896941-3.132235-10.059294 0.798118-1.039059 1.234824-1.701647 1.234823-2.16847V170.736941c0-36.171294-23.672471-76.619294-64.722823-76.619294h-392.884706c-41.276235 0-69.451294 39.454118-69.451294 76.001882v525.040942z m88.786823-450.454589h359.077647c3.975529 0 7.183059 3.553882 7.183059 7.529412s-3.207529 7.529412-7.183059 7.529412H352.316235c-3.975529 0-7.183059-3.553882-7.183059-7.529412s3.222588-7.529412 7.183059-7.529412z m0 135.529412h272.896c3.975529 0 7.183059 3.553882 7.183059 7.529412s-3.207529 7.529412-7.183059 7.529412H352.316235c-3.975529 0-7.183059-3.553882-7.183059-7.529412s3.222588-7.529412 7.183059-7.529412z m0 105.411765h186.714353c3.975529 0 7.183059 3.553882 7.183059 7.529412s-3.207529 7.529412-7.183059 7.529411H352.316235c-3.975529 0-7.183059-3.553882-7.183059-7.529411s3.222588-7.529412 7.183059-7.529412z m0 105.411765h186.714353c3.975529 0 7.183059 3.553882 7.183059 7.529411s-3.207529 7.529412-7.183059 7.529412H352.316235c-3.975529 0-7.183059-3.553882-7.183059-7.529412s3.222588-7.529412 7.183059-7.529411zM740.231529 771.764706h-77.703529l-136.553412 87.702588 58.217412 43.52a71.183059 71.183059 0 0 0 43.324235 14.245647 71.890824 71.890824 0 0 0 57.298824-28.551529l100.98447-131.945412c-13.161412 8.899765-29.635765 15.028706-45.568 15.028706zM1018.714353 413.409882c-2.605176-19.049412-15.585882-35.900235-30.810353-47.465411L805.647059 230.113882v193.264942l88.741647 64.918588c3.177412 2.394353 5.360941 6.896941 2.966588 10.059294-1.415529 1.867294-2.770824 2.846118-4.939294 2.846118-1.520941 0-5.797647-0.481882-7.077647-1.460706L805.647059 441.389176v141.312l12.032 6.731295c3.177412 2.394353 5.360941 6.896941 2.966588 10.059294-1.415529 1.882353-2.785882 2.861176-4.939294 2.861176-1.520941 0-5.797647-0.481882-7.077647-1.460706l-2.981647-0.165647v108.8c0 4.909176 2.439529 9.562353 1.204706 13.95953l196.427294-256.90353c11.565176-15.239529 18.055529-34.123294 15.435294-53.172706z" p-id="2336"></path></svg>